#!OML:ASF F:\VICON\USERDATA\INSTALL\rory3\rory3.ASF
:FULLY-SPECIFIED
:DEGREES
36
root 3.84327 17.5318 3.90488 20.2161 -12.2492 1.79875
lowerback -11.8578 2.79428 3.6075
upperback -14.984 3.42115 -0.33064
thorax -9.25646 1.28556 -2.2212
lowerneck -1.81534 18.1443 13.138
upperneck 10.9594 23.1167 5.4904
head 4.44299 12.1474 0.987165
rclavicle -3.57812e-014 -2.06736e-014
rhumerus 1.45437 -19.5046 22.3409
rradius 121.995
rwrist -56.4806
rhand -5.92942 -47.0695
rfingers 7.12502
rthumb 19.9002 -76.0706
lclavicle -3.57812e-014 -2.06736e-014
lhumerus 27.1943 17.2575 -26.2338
lradius 33.4184
lwrist 47.5103
lhand -27.3161 -19.4476
lfingers 7.12502
lthumb -0.725387 10.5309
rfemur -3.3232 2.80802 -5.94759
rtibia 6.25426
rfoot -43.1845 -8.53356
rtoes 55.3617
lfemur -20.3854 1.34341 -30.8088
ltibia 12.2885
lfoot -11.4317 8.53033
ltoes 6.63809
37
root 3.84818 17.5313 3.90516 20.228 -12.2193 1.76894
lowerback -11.7669 2.81512 3.60005
upperback -14.8347 3.45087 -0.368865
thorax -9.12696 1.30494 -2.25644
lowerneck -2.57098 18.1022 13.1929
upperneck 11.0666 22.9418 5.33731
head 4.6138 12.0608 1.01106
rclavicle -2.14687e-014 -7.95139e-016
rhumerus 1.16819 -19.7778 22.4358
rradius 122.011
rwrist -56.6434
rhand -5.65267 -46.9616
rfingers 7.12502
rthumb 20.1662 -75.9349
lclavicle -2.14687e-014 -7.95139e-016
lhumerus 27.1911 17.7486 -26.0985
lradius 33.4369
lwrist 47.4374
lhand -26.8833 -19.2478
lfingers 7.12502
lthumb -0.307347 10.7317
rfemur -3.30082 2.78802 -5.92614
rtibia 6.23994
rfoot -43.1457 -8.66728
rtoes 55.3939
lfemur -20.3873 1.20924 -30.7561
ltibia 12.3203
lfoot -11.4392 8.6448
ltoes 6.69549
38
root 3.85313 17.5328 3.90426 20.3141 -12.1625 1.67517
lowerback -11.7811 2.7641 3.65169
upperback -14.637 3.38103 -0.287172
thorax -8.89415 1.27863 -2.19392
lowerneck -3.58004 18.2371 12.9288
upperneck 11.3781 22.9541 5.45131
head 4.8273 12.0762 1.18835
rclavicle -1.5704e-014 -9.54166e-015
rhumerus 1.1172 -20.258 22.4177
rradius 122.003
rwrist -56.6339
rhand -5.47128 -46.8474
rfingers 7.12502
rthumb 20.3405 -75.8022
lclavicle -1.5704e-014 -9.54166e-015
lhumerus 26.7637 18.0425 -26.3374
lradius 33.523
lwrist 47.9475
lhand -25.9817 -19.2542
lfingers 7.12502
lthumb 0.563426 10.7248
rfemur -3.42792 2.73935 -5.82402
rtibia 6.36674
rfoot -43.1627 -8.81819
rtoes 55.3813
lfemur -20.454 1.28754 -30.6902
ltibia 12.3065
lfoot -11.4322 8.5226
ltoes 6.80748
39
root 3.85196 17.5342 3.90402 20.3566 -12.1866 1.63692
lowerback -11.8204 2.81028 3.79076
upperback -15.0998 3.43926 -0.291574
thorax -9.40845 1.27306 -2.2853
lowerneck -1.41113 17.999 13.1667
upperneck 10.7841 23.0136 5.29032
head 4.34833 12.081 0.871398
rclavicle 2.78299e-015 7.95139e-016
rhumerus 1.38928 -19.4348 22.3974
rradius 122.104
rwrist -56.7111
rhand -5.85511 -47.0211
rfingers 7.12502
rthumb 19.9716 -76.0147
lclavicle 2.78299e-015 7.95139e-016
lhumerus 27.0467 17.0572 -26.3849
lradius 33.6075
lwrist 48.2987
lhand -26.1584 -19.3625
lfingers 7.12502
lthumb 0.392773 10.6169
rfemur -3.57953 2.75814 -5.77706
rtibia 6.47605
rfoot -43.0894 -9.36268
rtoes 55.2701
lfemur -20.4879 1.4292 -30.694
ltibia 12.2935
lfoot -11.4142 8.43111
ltoes 6.50347
40
root 3.8508 17.5328 3.90519 20.3378 -12.2618 1.69921
lowerback -11.7927 2.87404 3.51607
upperback -14.8919 3.53261 -0.396714
thorax -9.17658 1.35107 -2.23684
lowerneck -2.79176 17.9982 13.2366
upperneck 11.4047 22.7439 5.4107
head 4.74725 11.9844 1.05505
rclavicle 2.72335e-014 4.96962e-014
rhumerus 0.825098 -19.7551 22.6272
rradius 122.109
rwrist -56.7031
rhand -6.20247 -47.1937
rfingers 7.12502
rthumb 19.6377 -76.2219
lclavicle 2.72335e-014 4.96962e-014
lhumerus 27.4417 17.9801 -25.8659
lradius 33.3717
lwrist 47.7543
lhand -26.2629 -19.5628
lfingers 7.12502
lthumb 0.291837 10.4168
rfemur -3.69158 2.8057 -5.85114
rtibia 6.56913
rfoot -42.9372 -9.79841
rtoes 55.2016
lfemur -20.4443 1.4388 -30.7772
ltibia 12.2547
lfoot -11.3704 8.48794
ltoes 6.2742
41
root 3.8531 17.5331 3.90455 20.3099 -12.2396 1.755
lowerback -11.8128 2.75643 3.647
upperback -15.2143 3.37701 -0.272606
thorax -9.55954 1.25164 -2.1919
lowerneck -0.862552 17.9224 13.2747
upperneck 10.9143 22.9984 5.22176
head 4.32473 12.0801 0.796551
rclavicle 3.4191e-014 -7.95139e-016
rhumerus 1.51235 -19.2827 22.3519
rradius 122.223
rwrist -56.8877
rhand -6.01021 -47.1801
rfingers 7.12502
rthumb 19.8225 -76.1892
lclavicle 3.4191e-014 -7.95139e-016
lhumerus 27.1323 16.9209 -26.2006
lradius 33.5627
lwrist 48.1915
lhand -25.726 -19.596
lfingers 7.12502
lthumb 0.810413 10.3822
rfemur -3.7565 2.77712 -5.88803
rtibia 6.73936
rfoot -42.863 -9.66898
rtoes 55.129
lfemur -20.3795 1.36174 -30.8143
ltibia 12.1527
lfoot -11.3266 8.48956
ltoes 6.60057
42
root 3.85646 17.5325 3.90869 20.2476 -12.2017 1.82134
lowerback -11.7586 2.84164 3.50627
upperback -14.9481 3.48856 -0.463263
thorax -9.26086 1.32264 -2.30821
lowerneck -2.45632 17.9222 13.4194
upperneck 11.4779 22.6929 5.31311
head 4.74902 11.9644 0.979968
rclavicle -3.10104e-014 -9.54166e-015
rhumerus 0.77819 -19.5463 22.615
rradius 122.246
rwrist -56.9024
rhand -6.01717 -47.0593
rfingers 7.12502
rthumb 19.8159 -76.0692
lclavicle -3.10104e-014 -9.54166e-015
lhumerus 27.2956 17.4324 -26.2184
lradius 33.6269
lwrist 48.5479
lhand -25.8294 -19.6904
lfingers 7.12502
lthumb 0.710478 10.2882
rfemur -3.74469 2.74436 -5.94812
rtibia 6.93223
rfoot -42.7923 -9.59784
rtoes 55.0061
lfemur -20.258 1.33608 -30.8849
ltibia 12.0424
lfoot -11.311 8.4307
ltoes 6.70286
43
root 3.85743 17.5308 3.91116 20.195 -12.2373 1.92561
lowerback -11.7403 2.78475 3.48134
upperback -15.136 3.41873 -0.413682
thorax -9.50222 1.28363 -2.25116
lowerneck -1.44391 17.9027 13.378
upperneck 11.1774 22.859 5.23964
head 4.50422 12.0281 0.856772
rclavicle -6.55989e-015 -2.38542e-014
rhumerus 1.1833 -19.2049 22.4038
rradius 122.243
rwrist -56.8681
rhand -6.22962 -47.004
rfingers 7.12502
rthumb 19.6116 -76.0348
lclavicle -6.55989e-015 -2.38542e-014
lhumerus 27.1998 16.8337 -26.3169
lradius 33.6303
lwrist 48.4191
lhand -26.0677 -19.9314
lfingers 7.12502
lthumb 0.480391 10.0479
rfemur -3.77548 2.75396 -6.07449
rtibia 7.10149
rfoot -42.7425 -9.75058
rtoes 54.9873
lfemur -20.1756 1.42129 -31.0314
ltibia 11.959
lfoot -11.2939 8.32863
ltoes 6.58309
44
root 3.85539 17.5323 3.90649 20.2263 -12.2994 1.9677
lowerback -11.6973 2.74337 3.42011
upperback -15.2662 3.3719 -0.369928
thorax -9.68937 1.26222 -2.17834
lowerneck -0.855502 17.9187 13.3411
upperneck 10.9761 22.9871 5.24705
head 4.34757 12.0809 0.799901
rclavicle -1.68967e-014 -7.95139e-015
rhumerus 1.50128 -19.1303 22.1435
rradius 122.159
rwrist -56.8238
rhand -6.06872 -47.0655
rfingers 7.12502
rthumb 19.7663 -76.0804
lclavicle -1.68967e-014 -7.95139e-015
lhumerus 27.1499 16.5399 -26.363
lradius 33.5502
lwrist 48.137
lhand -25.3561 -20.2246
lfingers 7.12502
lthumb 1.16762 9.75192
rfemur -3.96306 2.77721 -6.1193
rtibia 7.34469
rfoot -42.6807 -9.7353
rtoes 54.9411
lfemur -20.1874 1.50591 -31.0917
ltibia 11.8389
lfoot -11.2979 8.26747
ltoes 7.66947
45
root 3.85372 17.5329 3.90225 20.2151 -12.2952 2.00117
lowerback -11.5988 2.7621 3.27904
upperback -15.0015 3.4015 -0.459855
thorax -9.42856 1.29675 -2.19202
lowerneck -2.221 18.003 13.2941
upperneck 11.32 22.8493 5.37161
head 4.64537 12.0325 0.985603
rclavicle -2.48481e-014 -2.70347e-014
rhumerus 1.12752 -19.6481 22.111
rradius 122.012
rwrist -56.6794
rhand -6.02117 -47.1481
rfingers 7.12502
rthumb 19.812 -76.1584
lclavicle -2.48481e-014 -2.70347e-014
lhumerus 26.9595 16.7925 -26.7215
lradius 33.6577
lwrist 48.7015
lhand -24.5235 -20.4137
lfingers 7.12502
lthumb 1.9718 9.55692
rfemur -4.08422 2.76785 -6.11787
rtibia 7.56721
rfoot -42.7018 -9.34484
rtoes 54.9387
lfemur -20.1594 1.52562 -31.115
ltibia 11.7579
lfoot -11.2907 8.23136
ltoes 10.476
46
root 3.85328 17.5315 3.90104 20.1135 -12.2618 2.14406
lowerback -11.5537 2.72002 3.20182
upperback -15.1077 3.35023 -0.492933
thorax -9.58398 1.27134 -2.19242
lowerneck -1.24675 17.9023 13.5525
upperneck 10.8782 22.9113 5.02903
head 4.42415 12.0358 0.750221
rclavicle 2.78299e-015 2.38542e-015
rhumerus 1.25925 -19.3971 22.0138
rradius 122.004
rwrist -56.5951
rhand -5.92473 -47.1661
rfingers 7.12502
rthumb 19.9047 -76.1668
lclavicle 2.78299e-015 2.38542e-015
lhumerus 26.6958 15.933 -27.2868
lradius 34.0209
lwrist 49.6418
lhand -24.1729 -20.2896
lfingers 7.12502
lthumb 2.3104 9.67766
rfemur -4.04533 2.72884 -6.22231
rtibia 7.49791
rfoot -42.7305 -10.0073
rtoes 54.8157
lfemur -20.1 1.58314 -31.2721
ltibia 11.7802
lfoot -11.2526 8.11946
ltoes 8.64492
47
root 3.85474 17.5288 3.9057 20.1329 -12.3352 2.13938
lowerback -11.6433 2.73749 3.21477
upperback -15.1117 3.36718 -0.506116
thorax -9.53605 1.27836 -2.20886
lowerneck -1.07809 17.8964 13.6652
upperneck 10.8182 22.9433 4.87291
head 4.41097 12.0456 0.68083
rclavicle -1.21259e-014 -1.07344e-014
rhumerus 1.26383 -19.3218 21.982
rradius 122.015
rwrist -56.5625
rhand -5.67203 -47.1452
rfingers 7.12502
rthumb 20.1476 -76.1205
lclavicle -1.21259e-014 -1.07344e-014
lhumerus 26.5889 15.8196 -27.3964
lradius 34.1479
lwrist 49.7116
lhand -24.3323 -20.2278
lfingers 7.12502
lthumb 2.1564 9.74108
rfemur -3.77365 2.78047 -6.29081
rtibia 7.15327
rfoot -42.8191 -9.51737
rtoes 54.8976
lfemur -20.1859 1.67681 -31.3169
ltibia 11.9222
lfoot -11.316 8.1304
ltoes 10.2416
